<?xml version="1.0" encoding="UTF-8"?>
<!DOCTYPE svg PUBLIC "-//W3C//DTD SVG 1.1//EN" "http://www.w3.org/Graphics/SVG/1.1/DTD/svg11.dtd">
<!-- Creator: CorelDRAW -->
<svg xmlns="http://www.w3.org/2000/svg" xml:space="preserve" width="47.211mm" height="8.089mm" version="1.1" style="shape-rendering:geometricPrecision; text-rendering:geometricPrecision; image-rendering:optimizeQuality; fill-rule:evenodd; clip-rule:evenodd"
viewBox="0 0 4721.1 808.9"
 xmlns:xlink="http://www.w3.org/1999/xlink"
 xmlns:xodm="http://www.corel.com/coreldraw/odm/2003">
 <defs>
  <style type="text/css">
   <![CDATA[
    .str0 {stroke:#2B2A29;stroke-width:17.64;stroke-miterlimit:22.9256}
    .fil1 {fill:none}
    .fil0 {fill:#182432}
    .fil4 {fill:#329FD8}
    .fil12 {fill:#363637}
    .fil6 {fill:#F23D34}
    .fil10 {fill:url(#id1)}
    .fil14 {fill:url(#id2)}
    .fil3 {fill:url(#id3)}
    .fil11 {fill:url(#id4)}
    .fil13 {fill:url(#id5)}
    .fil17 {fill:url(#id6)}
    .fil5 {fill:url(#id7)}
    .fil9 {fill:url(#id8)}
    .fil18 {fill:url(#id9)}
    .fil7 {fill:url(#id10)}
    .fil19 {fill:url(#id11)}
    .fil15 {fill:url(#id12)}
    .fil2 {fill:url(#id13)}
    .fil16 {fill:url(#id14)}
    .fil8 {fill:url(#id15)}
    .fil20 {fill:url(#id16)}
   ]]>
  </style>
    <clipPath id="id0">
     <path d="M1653.97 104.93l0.14 0.01 -0.27 0 0.13 -0.01zm346.91 391.57c-20.7,173.31 -168.12,307.68 -346.91,307.68 -192.98,0 -349.42,-156.53 -349.42,-349.62 0,-178.35 133.47,-325.49 305.91,-346.93l0 163.8c-82.9,19.64 -144.58,94.18 -144.58,183.13 0,103.94 84.21,188.2 188.09,188.2 89.48,0 164.35,-62.52 183.4,-146.26l163.51 0z"/>
    </clipPath>
  <linearGradient id="id1" gradientUnits="userSpaceOnUse" x1="236.67" y1="596.55" x2="-58.97" y2="372.55">
   <stop offset="0" style="stop-opacity:1; stop-color:#161718"/>
   <stop offset="0.6" style="stop-opacity:1; stop-color:#454646"/>
   <stop offset="1" style="stop-opacity:1; stop-color:#757575"/>
  </linearGradient>
  <linearGradient id="id2" gradientUnits="userSpaceOnUse" x1="2428.9" y1="705.54" x2="2179.9" y2="705.54">
   <stop offset="0" style="stop-opacity:1; stop-color:#798185"/>
   <stop offset="1" style="stop-opacity:1; stop-color:black"/>
  </linearGradient>
  <linearGradient id="id3" gradientUnits="userSpaceOnUse" x1="230.9" y1="153.55" x2="562.9" y2="153.55">
   <stop offset="0" style="stop-opacity:1; stop-color:#00003E"/>
   <stop offset="1" style="stop-opacity:1; stop-color:#63C0E9"/>
  </linearGradient>
  <linearGradient id="id4" gradientUnits="userSpaceOnUse" x1="191.47" y1="344.55" x2="47.52" y2="353.55">
   <stop offset="0" style="stop-opacity:1; stop-color:#1B1B1C"/>
   <stop offset="1" style="stop-opacity:1; stop-color:#787878"/>
  </linearGradient>
  <linearGradient id="id5" gradientUnits="userSpaceOnUse" x1="2058.9" y1="383.55" x2="2223.9" y2="383.55">
   <stop offset="0" style="stop-opacity:1; stop-color:black"/>
   <stop offset="1" style="stop-opacity:1; stop-color:#798185"/>
  </linearGradient>
  <linearGradient id="id6" gradientUnits="userSpaceOnUse" xlink:href="#id5" x1="4287.56" y1="279.55" x2="3867.56" y2="304.55">
  </linearGradient>
  <linearGradient id="id7" gradientUnits="userSpaceOnUse" x1="655.9" y1="271.79" x2="621.9" y2="420.65">
   <stop offset="0" style="stop-opacity:1; stop-color:#0761B0"/>
   <stop offset="1" style="stop-opacity:1; stop-color:#63C0E9"/>
  </linearGradient>
  <linearGradient id="id8" gradientUnits="userSpaceOnUse" xlink:href="#id7" x1="1192.9" y1="271.79" x2="1157.9" y2="420.65">
  </linearGradient>
  <linearGradient id="id9" gradientUnits="userSpaceOnUse" xlink:href="#id5" x1="4196.45" y1="360.39" x2="4048.49" y2="367.11">
  </linearGradient>
  <linearGradient id="id10" gradientUnits="userSpaceOnUse" xlink:href="#id3" x1="767.9" y1="153.55" x2="1098.9" y2="153.55">
  </linearGradient>
  <radialGradient id="id11" gradientUnits="userSpaceOnUse" gradientTransform="matrix(5.9669 -1.69006 1.69005 5.96696 -18575 3803)" cx="3585.15" cy="454.23" r="344.33" fx="3585.15" fy="454.23">
   <stop offset="0" style="stop-opacity:1; stop-color:#798185"/>
   <stop offset="1" style="stop-opacity:1; stop-color:black"/>
  </radialGradient>
  <radialGradient id="id12" gradientUnits="userSpaceOnUse" gradientTransform="matrix(5.86598 -1.66149 1.66147 5.86612 -14577 2507)" xlink:href="#id11" cx="2840.41" cy="454.63" r="350.83" fx="2840.41" fy="454.63">
  </radialGradient>
  <radialGradient id="id13" gradientUnits="userSpaceOnUse" gradientTransform="matrix(5.22899 -5.22877 5.21042 5.20916 -9149 8326)" cx="1818.09" cy="280.35" r="169.25" fx="1818.09" fy="280.35">
   <stop offset="0" style="stop-opacity:1; stop-color:#63C0E9"/>
   <stop offset="1" style="stop-opacity:1; stop-color:#0F87CC"/>
  </radialGradient>
  <radialGradient id="id14" gradientUnits="userSpaceOnUse" gradientTransform="matrix(5.86543 -1.66129 1.66131 5.86543 -23286 5481)" xlink:href="#id11" cx="4630.74" cy="454.63" r="350.82" fx="4630.74" fy="454.63">
  </radialGradient>
  <radialGradient id="id15" gradientUnits="userSpaceOnUse" gradientTransform="matrix(2.97184 1.73323 -3.22131 2.09127 -644 -2031)" xlink:href="#id13" cx="936.86" cy="373.55" r="237.67" fx="936.86" fy="373.55">
  </radialGradient>
  <radialGradient id="id16" gradientUnits="userSpaceOnUse" gradientTransform="matrix(703.374 -3.4561 199.246 12.2036 -2.46729E+06 8414)" xlink:href="#id11" cx="3426.03" cy="305.82" r="167.81" fx="3426.03" fy="305.82">
  </radialGradient>
 </defs>
 <g id="Layer_x0020_1">
  <metadata id="CorelCorpID_0Corel-Layer"/>
  <g id="_2258282722480">
   <path class="fil0" d="M1653.97 104.93l0.14 0.01 -0.27 0 0.13 -0.01zm346.91 391.57c-20.7,173.31 -168.12,307.68 -346.91,307.68 -192.98,0 -349.42,-156.53 -349.42,-349.62 0,-178.35 133.47,-325.49 305.91,-346.93l0 163.8c-82.9,19.64 -144.58,94.18 -144.58,183.13 0,103.94 84.21,188.2 188.09,188.2 89.48,0 164.35,-62.52 183.4,-146.26l163.51 0z"/>
   <g>
   </g>
   <g>
   </g>
   <g style="clip-path:url(#id0)">
    <g>
     <ellipse class="fil1 str0" cx="1348.88" cy="50.68" rx="47.03" ry="37.62"/>
    </g>
   </g>
   <path class="fil1" d="M1653.97 104.93l0.14 0.01 -0.27 0 0.13 -0.01zm346.91 391.57c-20.7,173.31 -168.12,307.68 -346.91,307.68 -192.98,0 -349.42,-156.53 -349.42,-349.62 0,-178.35 133.47,-325.49 305.91,-346.93l0 163.8c-82.9,19.64 -144.58,94.18 -144.58,183.13 0,103.94 84.21,188.2 188.09,188.2 89.48,0 164.35,-62.52 183.4,-146.26l163.51 0z"/>
   <path class="fil1" d="M1653.97 104.93l0.14 0.01 -0.27 0 0.13 -0.01zm346.91 391.57c-20.7,173.31 -168.12,307.68 -346.91,307.68 -192.98,0 -349.42,-156.53 -349.42,-349.62 0,-178.35 133.47,-325.49 305.91,-346.93l0 163.8c-82.9,19.64 -144.58,94.18 -144.58,183.13 0,103.94 84.21,188.2 188.09,188.2 89.48,0 164.35,-62.52 183.4,-146.26l163.51 0z"/>
   <path class="fil1" d="M1653.97 104.93l0.14 0.01 -0.27 0 0.13 -0.01zm346.91 391.57c-20.7,173.31 -168.12,307.68 -346.91,307.68 -192.98,0 -349.42,-156.53 -349.42,-349.62 0,-178.35 133.47,-325.49 305.91,-346.93l0 163.8c-82.9,19.64 -144.58,94.18 -144.58,183.13 0,103.94 84.21,188.2 188.09,188.2 89.48,0 164.35,-62.52 183.4,-146.26l163.51 0z"/>
   <polygon class="fil2" points="2000.88,104.93 1662.38,104.93 1662.38,278.83 1826.38,278.83 1826.38,442.26 2000.88,442.26 "/>
   <path class="fil3" d="M749.26 311.46l0 -0.51c0,-19.35 -2.63,-38.11 -7.53,-55.96 -0.39,-1.41 -0.79,-2.8 -1.2,-4.19l-0.01 -0.02c-4.55,-15.32 -10.8,-29.93 -18.51,-43.61l-0.04 -0.07c-0.68,-1.21 -1.37,-2.41 -2.08,-3.6l-0.12 -0.2c-3.57,-6.05 -7.44,-11.9 -11.58,-17.54l-0.2 -0.28c-0.76,-1.03 -1.53,-2.05 -2.3,-3.06l-0.45 -0.59c-0.77,-0.99 -1.53,-1.97 -2.3,-2.95l-0.25 -0.3c-3.38,-4.23 -6.92,-8.32 -10.61,-12.28l-0.56 -0.6c-0.8,-0.86 -1.61,-1.7 -2.42,-2.54l-0.75 -0.76c-0.8,-0.83 -1.61,-1.64 -2.43,-2.45l-0.62 -0.6c-2.77,-2.72 -5.61,-5.36 -8.52,-7.93l-0.44 -0.38c-0.8,-0.7 -1.61,-1.39 -2.41,-2.08l-1.18 -1c-0.76,-0.63 -1.52,-1.26 -2.29,-1.88l-1.25 -1.01c-0.8,-0.64 -1.6,-1.27 -2.4,-1.9l-1.12 -0.86c-0.84,-0.64 -1.69,-1.29 -2.54,-1.93l-0.23 -0.16c-1.87,-1.39 -3.78,-2.75 -5.7,-4.09 -0.4,-0.28 -0.81,-0.57 -1.22,-0.84 -0.77,-0.52 -1.53,-1.03 -2.3,-1.53 -0.54,-0.36 -1.08,-0.73 -1.62,-1.08 -0.75,-0.49 -1.51,-0.98 -2.28,-1.46l-1.7 -1.07c-0.74,-0.46 -1.49,-0.91 -2.25,-1.37 -0.61,-0.38 -1.22,-0.73 -1.84,-1.1 -0.73,-0.42 -1.44,-0.86 -2.18,-1.27 -0.86,-0.51 -1.75,-0.99 -2.63,-1.48 -0.95,-0.53 -1.91,-1.05 -2.88,-1.57 -0.84,-0.45 -1.67,-0.89 -2.51,-1.32 -0.67,-0.35 -1.35,-0.69 -2.02,-1.03 -0.73,-0.37 -1.46,-0.74 -2.2,-1.09 -0.7,-0.35 -1.41,-0.69 -2.11,-1.03 -0.74,-0.35 -1.48,-0.7 -2.22,-1.04 -0.7,-0.32 -1.39,-0.64 -2.09,-0.95 -0.83,-0.38 -1.67,-0.74 -2.5,-1.1 -0.62,-0.26 -1.21,-0.53 -1.81,-0.78 -1.31,-0.55 -2.61,-1.09 -3.92,-1.61l-1.53 -0.6c-1.1,-0.43 -2.21,-0.86 -3.32,-1.27 -0.59,-0.22 -1.18,-0.43 -1.77,-0.64 -0.93,-0.33 -1.86,-0.66 -2.79,-0.99 -0.64,-0.22 -1.28,-0.43 -1.92,-0.64 -0.89,-0.3 -1.79,-0.6 -2.69,-0.89 -0.65,-0.2 -1.3,-0.41 -1.95,-0.61 -0.97,-0.3 -1.93,-0.58 -2.89,-0.86 -0.59,-0.18 -1.16,-0.35 -1.75,-0.51 -1.53,-0.44 -3.05,-0.86 -4.59,-1.25l-0.65 -0.17c-1.33,-0.34 -2.68,-0.67 -4.03,-0.99 -0.6,-0.14 -1.21,-0.28 -1.82,-0.41 -1,-0.22 -2,-0.44 -3,-0.65l-1.92 -0.4c-0.99,-0.2 -1.98,-0.39 -2.98,-0.57 -0.62,-0.12 -1.24,-0.23 -1.86,-0.34 -1.1,-0.2 -2.2,-0.38 -3.3,-0.55 -0.53,-0.08 -1.05,-0.17 -1.58,-0.26 -1.62,-0.24 -3.24,-0.47 -4.87,-0.68l-0.03 -0.01 -0.3 -0.03c-1.53,-0.2 -3.07,-0.37 -4.62,-0.53 -0.52,-0.06 -1.05,-0.1 -1.57,-0.16 -1.15,-0.11 -2.3,-0.21 -3.46,-0.3 -0.58,-0.05 -1.16,-0.09 -1.73,-0.13 -1.11,-0.08 -2.23,-0.16 -3.35,-0.21l-1.81 -0.11c-1.13,-0.05 -2.27,-0.08 -3.4,-0.13 -0.57,-0.01 -1.13,-0.03 -1.69,-0.05 -1.49,-0.04 -3,-0.06 -4.49,-0.06l-0.08 0 -0.08 0 -0.08 0 -0.08 0 -0.08 0 -0.08 0 -0.07 0 -299.54 0 0 0.85c0,85.65 70.07,155.73 155.72,155.73l161.58 0 1.63 0.83c44.48,1.27 145.59,12.64 190.7,87.21l-0.04 0.31c1.61,-10.41 2.46,-21.05 2.48,-31.88z"/>
   <path class="fil4" d="M340.43 370.33l197.47 -0.24c22.74,-0.72 42.26,-14.81 50.92,-34.61 -24.95,105.09 -130.77,167.49 -171.47,188l-180.16 0 0 -13.77 0 -36.14c0,-56.78 46.46,-103.24 103.24,-103.24z"/>
   <path class="fil5" d="M417.35 523.48l119.38 0c105.99,0 194.51,-78.63 210.09,-180.45 -49.71,-82.17 -167.44,-87.61 -202.44,-87.34 27.74,4.06 49.22,28.1 49.22,56.92 0,8.11 -1.72,15.84 -4.78,22.86 -24.95,105.09 -130.76,167.5 -171.47,188.01z"/>
   <path class="fil6" d="M965.33 139.32l60.7 0c11.24,0 20.45,-9.2 20.45,-20.45l0 0c0,-11.26 -9.21,-20.46 -20.45,-20.46l-60.7 0 0 40.91z"/>
   <path class="fil6" d="M1111.48 180.24l59.79 0c11.25,0 20.45,9.21 20.45,20.46l0 0c0,11.25 -9.2,20.46 -20.45,20.46l-59.79 0c-11.25,0 -20.46,-9.21 -20.46,-20.46l0 0c0,-11.25 9.21,-20.46 20.46,-20.46z"/>
   <path class="fil7" d="M1073.47 98.41l-0.08 0 -0.08 0 -0.08 0 -0.08 0 -0.09 0 -0.07 0 -0.08 0 -299.54 0 0 0.85c0,85.68 70.07,155.76 155.73,155.76l161.57 0 1.63 0.84c44.49,1.26 145.6,12.65 190.71,87.23l-0.05 0.3c1.64,-10.57 2.49,-21.39 2.49,-32.4l0 0c0,-19.36 -2.64,-38.12 -7.54,-55.97 -0.39,-1.4 -0.79,-2.8 -1.2,-4.2l-0.01 -0.01c-4.55,-15.32 -10.8,-29.93 -18.51,-43.61l-0.03 -0.07c-0.68,-1.21 -1.38,-2.42 -2.09,-3.61l-0.11 -0.2c-3.58,-6.04 -7.45,-11.9 -11.59,-17.54l-0.2 -0.28c-0.76,-1.03 -1.52,-2.05 -2.3,-3.06l-0.45 -0.59c-0.76,-0.99 -1.53,-1.98 -2.3,-2.96l-0.25 -0.29c-3.38,-4.23 -6.92,-8.33 -10.61,-12.3l-0.55 -0.59c-0.81,-0.85 -1.61,-1.7 -2.43,-2.54l-0.74 -0.76c-0.8,-0.82 -1.62,-1.64 -2.44,-2.44l-0.62 -0.61c-2.77,-2.72 -5.61,-5.37 -8.52,-7.93l-0.44 -0.38c-0.79,-0.7 -1.61,-1.39 -2.41,-2.07l-1.18 -1.01c-0.76,-0.63 -1.52,-1.26 -2.28,-1.88l-1.26 -1.01c-0.8,-0.64 -1.59,-1.27 -2.4,-1.9l-1.11 -0.86c-0.85,-0.64 -1.7,-1.29 -2.54,-1.93l-0.23 -0.17c-1.88,-1.39 -3.79,-2.74 -5.7,-4.08 -0.41,-0.28 -0.81,-0.57 -1.22,-0.85 -0.77,-0.51 -1.53,-1.02 -2.3,-1.53 -0.54,-0.35 -1.08,-0.72 -1.63,-1.07 -0.75,-0.5 -1.51,-0.98 -2.27,-1.46l-1.71 -1.07c-0.74,-0.46 -1.48,-0.92 -2.24,-1.37 -0.61,-0.38 -1.23,-0.74 -1.85,-1.1 -0.72,-0.43 -1.44,-0.86 -2.17,-1.28 -0.87,-0.5 -1.76,-0.99 -2.64,-1.48 -0.95,-0.52 -1.91,-1.05 -2.87,-1.56 -0.84,-0.45 -1.67,-0.89 -2.51,-1.33 -0.68,-0.35 -1.35,-0.68 -2.02,-1.02 -0.74,-0.37 -1.46,-0.74 -2.2,-1.1 -0.71,-0.35 -1.41,-0.69 -2.12,-1.02 -0.74,-0.35 -1.48,-0.7 -2.22,-1.05 -0.69,-0.31 -1.38,-0.64 -2.08,-0.95 -0.83,-0.37 -1.67,-0.74 -2.51,-1.09 -0.61,-0.27 -1.21,-0.54 -1.81,-0.79 -1.3,-0.55 -2.61,-1.08 -3.92,-1.61l-1.53 -0.59c-1.1,-0.43 -2.2,-0.86 -3.31,-1.27 -0.6,-0.22 -1.18,-0.43 -1.78,-0.65 -0.93,-0.33 -1.85,-0.66 -2.79,-0.99 -0.64,-0.22 -1.27,-0.43 -1.92,-0.64 -0.89,-0.3 -1.78,-0.59 -2.68,-0.88 -0.65,-0.21 -1.31,-0.42 -1.96,-0.62 -0.96,-0.3 -1.93,-0.58 -2.89,-0.86 -0.58,-0.17 -1.16,-0.35 -1.75,-0.51 -1.52,-0.44 -3.05,-0.86 -4.59,-1.25l-0.64 -0.17c-1.34,-0.34 -2.68,-0.67 -4.03,-0.99 -0.61,-0.14 -1.22,-0.27 -1.83,-0.41 -1,-0.22 -1.99,-0.44 -2.99,-0.65l-1.93 -0.4c-0.99,-0.2 -1.98,-0.39 -2.98,-0.57 -0.62,-0.12 -1.24,-0.23 -1.86,-0.34 -1.1,-0.2 -2.2,-0.37 -3.3,-0.55 -0.53,-0.08 -1.05,-0.17 -1.58,-0.26 -1.61,-0.24 -3.23,-0.47 -4.86,-0.68l-0.03 -0.01 -0.31 -0.03c-1.53,-0.2 -3.07,-0.37 -4.61,-0.53 -0.52,-0.06 -1.05,-0.1 -1.58,-0.16 -1.14,-0.11 -2.3,-0.21 -3.45,-0.3 -0.58,-0.05 -1.17,-0.09 -1.74,-0.13 -1.11,-0.08 -2.23,-0.15 -3.34,-0.21l-1.82 -0.11c-1.13,-0.05 -2.26,-0.08 -3.4,-0.12 -0.56,-0.02 -1.12,-0.04 -1.69,-0.06 -1.49,-0.04 -2.99,-0.06 -4.48,-0.06z"/>
   <path class="fil8" d="M876.61 370.39l197.47 -0.25c22.75,-0.71 42.26,-14.8 50.93,-34.62 -24.52,103.3 -127.13,165.36 -169.29,186.94l255.19 287.72 -245.95 0.67 -138.83 -167.6c-77.47,-93.83 -45.57,-272.75 50.48,-272.86z"/>
   <path class="fil9" d="M956.7 523.57l116.21 0c105.99,0 194.51,-78.65 210.1,-180.48 -49.72,-82.2 -167.44,-87.63 -202.44,-87.36 27.74,4.05 49.21,28.1 49.21,56.92 0,8.11 -1.71,15.85 -4.77,22.87 -24.52,103.29 -127.13,165.36 -169.29,186.94l0.98 1.11z"/>
   <path class="fil10" d="M165.21 737.48c-5.16,41.22 -40.56,73.37 -83.11,73.37l0 0c-46.07,0 -83.77,-37.7 -83.77,-83.76l0 -547.72c0,-6.7 0.75,-13.23 2.26,-19.48l0 0c-9.8,128.41 123.42,396.65 164.56,578.07l0.06 -0.48z"/>
   <path class="fil11" d="M165.85 727.43l0 -0.34c-0.01,-95.57 -0.76,-403.54 0,-499.08l0 -1.48c-0.86,-40.27 -55.55,-38.95 -83.75,-38.95 -31.64,0 -59.92,-14.43 -78.6,-37.06 -1.1,2.98 -2.05,6.03 -2.81,9.15 -9.79,128.41 123.32,396.87 164.46,578.29 0.45,-3.45 0.7,-6.96 0.7,-10.53z"/>
   <path class="fil12" d="M82.1 1.94c46.26,0 83.76,37.51 83.76,83.76 0,46.26 -37.5,83.77 -83.76,83.77 -46.26,0 -83.77,-37.51 -83.77,-83.77 0,-46.25 37.51,-83.76 83.77,-83.76z"/>
   <path class="fil13" d="M2230.13 810.85l0 -540.43c0,-94.6 -77.41,-172.01 -172.02,-172.01l0 540.43c0,94.6 77.41,172.01 172.02,172.01z"/>
   <path class="fil14" d="M2230.13 810.85l328.02 0c0,-95.49 -78.13,-173.61 -173.62,-173.61l-154.4 0 0 173.61z"/>
   <path class="fil15" d="M2847.43 103.81c193.75,0 350.83,157.07 350.83,350.82 0,193.76 -157.08,350.82 -350.83,350.82 -193.75,0 -350.82,-157.06 -350.82,-350.82 0,-193.75 157.07,-350.82 350.82,-350.82zm0 162.39c104.07,0 188.44,84.36 188.44,188.43 0,104.07 -84.37,188.43 -188.44,188.43 -104.06,0 -188.43,-84.36 -188.43,-188.43 0,-104.07 84.37,-188.43 188.43,-188.43z"/>
   <path class="fil16" d="M4719.47 798.1l0 -169.19c-22.11,9.11 -46.33,14.15 -71.73,14.15 -104.06,0 -188.42,-84.36 -188.42,-188.43 0,-104.07 84.36,-188.43 188.42,-188.43 25.4,0 49.62,5.04 71.73,14.14l0 -169.19c-23.15,-4.8 -47.14,-7.34 -71.73,-7.34 -193.75,0 -350.81,157.07 -350.81,350.82 0,193.76 157.06,350.82 350.81,350.82 24.59,0 48.58,-2.54 71.73,-7.35z"/>
   <path class="fil17" d="M4169.56 737.48c-5.16,41.22 -40.56,73.37 -83.11,73.37 -46.07,0 -83.76,-37.7 -83.76,-83.76l0 -547.72c0,-6.7 0.75,-13.23 2.25,-19.48l0 0c-9.8,128.41 123.42,396.65 164.56,578.07l0.06 -0.48z"/>
   <path class="fil18" d="M4170.21 226.52l0 1.49c-0.76,95.54 -0.02,403.51 0,499.08 0,3.68 -0.24,7.32 -0.71,10.87 -41.14,-181.42 -174.25,-449.88 -164.45,-578.29 21.45,-88.15 150.01,-77.86 163.09,9.2 2.92,19.46 1.69,40.06 2.07,57.65z"/>
   <path class="fil19" d="M3929.48 549.44c-41.36,147.69 -176.94,256.01 -337.85,256.01 -193.75,0 -350.81,-157.06 -350.81,-350.82 0,-160.9 108.31,-296.48 256,-337.84l161.62 161.61c-20.77,-7.88 -43.28,-12.2 -66.81,-12.2 -104.06,0 -188.42,84.36 -188.42,188.43 0,104.07 84.36,188.43 188.42,188.43 104.07,0 188.44,-84.36 188.44,-188.43 0,-23.52 -4.33,-46.04 -12.2,-66.81l161.61 161.62z"/>
   <path class="fil20" d="M3755.92 549.46l34 0c46.62,-0.01 93.01,-0.03 139.54,-0.04l-162.35 -162.35c-57.93,0 -115.57,-0.03 -173.27,-0.04l0 162.39c54.1,0 107.93,0.03 162.08,0.04z"/>
  </g>
 </g>
</svg>
